<?xml version="1.0" ?><svg enable-background="new 0 0 24 24" id="Layer_1" version="1.1" viewBox="0 0 24 24" xml:space="preserve" xmlns="http://www.w3.org/2000/svg" xmlns:xlink="http://www.w3.org/1999/xlink"><path d="M20.9264698,20.7454224c0.0112305-0.0194092,0.0267944-0.0353394,0.0353394-0.0563354  c0.017334-0.0419312,0.0217896-0.0874634,0.0270996-0.1327515c0.001709-0.0147095,0.0078735-0.0276489,0.0083008-0.0424194  c0.0001221-0.0048218,0.0026855-0.0090332,0.0026855-0.013916v-20c0-0.2763672-0.2236328-0.5-0.5-0.5h-15.5  C3.8973567,0,2.9998958,0.8969727,2.9998958,2v20c0,1.1030273,0.8974609,2,1.9999998,2h15.5  c0.1845703,0,0.3535156-0.1015625,0.4404297-0.2641602c0.0878906-0.1625977,0.078125-0.3598633-0.0244141-0.5131836  c-0.4951172-0.7426758-0.4951172-1.7026367,0-2.4453125C20.9223804,20.7677002,20.9207325,20.7554321,20.9264698,20.7454224z   M8.5000792,7.5c0-0.2763672,0.2236328-0.5,0.5-0.5h1.5V5.5c0-0.2763672,0.2236328-0.5,0.5-0.5h2c0.2763672,0,0.5,0.2236328,0.5,0.5  V7h1.5c0.2763672,0,0.5,0.2236328,0.5,0.5v2c0,0.2763672-0.2236328,0.5-0.5,0.5h-1.5v5.5c0,0.2763672-0.2236328,0.5-0.5,0.5h-2  c-0.2763672,0-0.5-0.2236328-0.5-0.5V10h-1.5c-0.2763672,0-0.5-0.2236328-0.5-0.5V7.5z M19.7049732,23H4.9998956  c-0.5517578,0-0.9999998-0.4487305-0.9999998-1s0.4482419-1,0.9999998-1h14.7050781  C19.4901295,21.6494141,19.4901295,22.3505859,19.7049732,23z" fill="#303C42"/><g/><g/><g/><g/><g/><g/><g/><g/><g/><g/><g/><g/><g/><g/><g/></svg>